<svg width="24" height="24" viewBox="0 0 24 24" fill="none" xmlns="http://www.w3.org/2000/svg">
<path d="M19.25 12C19.25 16.0041 16.0041 19.25 12 19.25C7.99594 19.25 4.75 16.0041 4.75 12C4.75 7.99594 7.99594 4.75 12 4.75C16.0041 4.75 19.25 7.99594 19.25 12Z" stroke="#343434" stroke-width="1.5" stroke-linecap="round" stroke-linejoin="round"/>
<path d="M14.5 12C14.5 14.1421 14.0217 15.8327 13.4271 16.9635C13.1289 17.5309 12.8115 17.9384 12.5291 18.1937C12.2314 18.4628 12.0459 18.5 12 18.5V20C12.5754 20 13.1068 19.6935 13.535 19.3063C13.9785 18.9054 14.396 18.3441 14.7548 17.6615C15.4747 16.2923 16 14.3579 16 12H14.5ZM12 18.5C11.9541 18.5 11.7686 18.4628 11.4709 18.1937C11.1885 17.9384 10.8711 17.5309 10.5729 16.9635C9.97834 15.8327 9.5 14.1421 9.5 12H8C8 14.3579 8.52534 16.2923 9.24516 17.6615C9.60404 18.3441 10.0215 18.9054 10.465 19.3063C10.8932 19.6935 11.4246 20 12 20V18.5ZM9.5 12C9.5 9.85786 9.97834 8.16734 10.5729 7.03651C10.8711 6.46913 11.1885 6.06164 11.4709 5.80634C11.7686 5.53723 11.9541 5.5 12 5.5V4C11.4246 4 10.8932 4.30652 10.465 4.69366C10.0215 5.09461 9.60404 5.65587 9.24516 6.33849C8.52534 7.70766 8 9.64214 8 12H9.5ZM12 5.5C12.0459 5.5 12.2314 5.53723 12.5291 5.80634C12.8115 6.06164 13.1289 6.46913 13.4271 7.03651C14.0217 8.16734 14.5 9.85786 14.5 12H16C16 9.64214 15.4747 7.70766 14.7548 6.33849C14.396 5.65587 13.9785 5.09461 13.535 4.69366C13.1068 4.30652 12.5754 4 12 4V5.5Z" fill="#343434"/>
<path d="M5 11.25C4.58579 11.25 4.25 11.5858 4.25 12C4.25 12.4142 4.58579 12.75 5 12.75V11.25ZM19 12.75C19.4142 12.75 19.75 12.4142 19.75 12C19.75 11.5858 19.4142 11.25 19 11.25V12.75ZM5 12.75H19V11.25H5V12.75Z" fill="#343434"/>
</svg>
