<svg width="12" height="14" viewBox="0 0 12 14" fill="none" xmlns="http://www.w3.org/2000/svg">
<path d="M6.00033 0.5C2.78366 0.5 0.166992 3.11667 0.166992 6.33333C0.166992 9.74533 3.29832 11.8133 5.37032 13.182L5.72299 13.416C5.80699 13.472 5.90366 13.5 6.00033 13.5C6.09699 13.5 6.19366 13.472 6.27766 13.416L6.63033 13.182C8.70233 11.8133 11.8337 9.74533 11.8337 6.33333C11.8337 3.11667 9.21699 0.5 6.00033 0.5ZM6.07966 12.3473L6.00033 12.4001L5.92099 12.3473C3.91432 11.022 1.16699 9.20733 1.16699 6.33333C1.16699 3.668 3.33499 1.5 6.00033 1.5C8.66566 1.5 10.8337 3.668 10.8337 6.33333C10.8337 9.20733 8.08566 11.0227 6.07966 12.3473ZM6.00033 4.16667C4.80566 4.16667 3.83366 5.13867 3.83366 6.33333C3.83366 7.528 4.80566 8.5 6.00033 8.5C7.19499 8.5 8.16699 7.528 8.16699 6.33333C8.16699 5.13867 7.19499 4.16667 6.00033 4.16667ZM6.00033 7.5C5.35699 7.5 4.83366 6.97667 4.83366 6.33333C4.83366 5.69 5.35699 5.16667 6.00033 5.16667C6.64366 5.16667 7.16699 5.69 7.16699 6.33333C7.16699 6.97667 6.64366 7.5 6.00033 7.5Z" fill="#686868"/>
</svg>
