<svg width="20" height="20" viewBox="0 0 20 20" fill="none" xmlns="http://www.w3.org/2000/svg">
<path d="M16.3251 5.57508C15.4944 5.39241 14.7429 4.95128 14.1785 4.31499C13.6141 3.67871 13.2657 2.87997 13.1835 2.03341V1.66675H10.3085V13.0584C10.309 13.5639 10.1506 14.0567 9.85549 14.4671C9.56041 14.8775 9.14368 15.1847 8.66434 15.3451C8.185 15.5055 7.66733 15.511 7.18469 15.3608C6.70204 15.2107 6.27887 14.9124 5.97512 14.5084C5.70299 14.1508 5.53636 13.7241 5.49406 13.2767C5.45176 12.8293 5.53549 12.379 5.73577 11.9767C5.93605 11.5745 6.2449 11.2362 6.62738 11.0003C7.00987 10.7644 7.45073 10.6402 7.90012 10.6417C8.14865 10.6403 8.39595 10.6769 8.63345 10.7501V7.83341C8.35707 7.79919 8.07854 7.78526 7.80012 7.79175C6.77455 7.81915 5.77922 8.14503 4.93602 8.72947C4.09283 9.31392 3.43836 10.1316 3.05277 11.0823C2.66717 12.033 2.56719 13.0755 2.76505 14.0822C2.96292 15.0889 3.45005 16.016 4.16679 16.7501C4.90136 17.4969 5.84136 18.0085 6.86737 18.2199C7.89337 18.4313 8.95905 18.3329 9.929 17.9372C10.899 17.5416 11.7294 16.8665 12.3148 15.9978C12.9002 15.1291 13.2142 14.106 13.2168 13.0584V7.22508C14.3763 8.05337 15.7668 8.49645 17.1918 8.49175V5.65841C16.9119 5.65957 16.6326 5.63164 16.3585 5.57508H16.3251Z" fill="#686868"/>
</svg>
