<svg width="23" height="24" viewBox="0 0 23 24" fill="none" xmlns="http://www.w3.org/2000/svg">
<path d="M9.10449 4.33325C5.13699 4.33325 1.91699 6.91117 1.91699 10.0833C1.91699 11.8945 2.95199 13.4949 4.58116 14.5491L3.83366 16.7916L6.22949 15.3541C7.08241 15.6512 8.02158 15.8333 9.01824 15.8333C8.76908 15.2295 8.62533 14.5874 8.62533 13.9166C8.62533 10.7445 11.6249 8.16659 15.3337 8.16659C15.5157 8.16659 15.6978 8.16659 15.8703 8.19534C14.8928 5.95284 12.2478 4.33325 9.10449 4.33325ZM6.22949 6.72909C6.48366 6.72909 6.72741 6.83005 6.90714 7.00977C7.08686 7.1895 7.18783 7.43325 7.18783 7.68742C7.18783 7.81327 7.16304 7.93789 7.11488 8.05416C7.06672 8.17043 6.99613 8.27607 6.90714 8.36506C6.81815 8.45405 6.7125 8.52464 6.59623 8.5728C6.47996 8.62096 6.35534 8.64575 6.22949 8.64575C5.97533 8.64575 5.73157 8.54479 5.55185 8.36506C5.37213 8.18534 5.27116 7.94158 5.27116 7.68742C5.27116 7.43325 5.37213 7.1895 5.55185 7.00977C5.73157 6.83005 5.97533 6.72909 6.22949 6.72909ZM11.0212 6.72909C11.2753 6.72909 11.5191 6.83005 11.6988 7.00977C11.8785 7.1895 11.9795 7.43325 11.9795 7.68742C11.9795 7.94158 11.8785 8.18534 11.6988 8.36506C11.5191 8.54479 11.2753 8.64575 11.0212 8.64575C10.767 8.64575 10.5232 8.54479 10.3435 8.36506C10.1638 8.18534 10.0628 7.94158 10.0628 7.68742C10.0628 7.43325 10.1638 7.1895 10.3435 7.00977C10.5232 6.83005 10.767 6.72909 11.0212 6.72909ZM15.3337 9.12492C12.1616 9.12492 9.58366 11.2716 9.58366 13.9166C9.58366 16.5616 12.1616 18.7083 15.3337 18.7083C15.9757 18.7083 16.5891 18.6316 17.1641 18.4687L19.167 19.6666L18.5728 17.8745C20.0774 17.0024 21.0837 15.5553 21.0837 13.9166C21.0837 11.2716 18.5057 9.12492 15.3337 9.12492ZM13.417 11.5208C13.6712 11.5208 13.9149 11.6217 14.0946 11.8014C14.2744 11.9812 14.3753 12.2249 14.3753 12.4791C14.3753 12.7333 14.2744 12.977 14.0946 13.1567C13.9149 13.3365 13.6712 13.4374 13.417 13.4374C13.1628 13.4374 12.9191 13.3365 12.7393 13.1567C12.5596 12.977 12.4587 12.7333 12.4587 12.4791C12.4587 12.2249 12.5596 11.9812 12.7393 11.8014C12.9191 11.6217 13.1628 11.5208 13.417 11.5208ZM17.2503 11.5208C17.5045 11.5208 17.7482 11.6217 17.928 11.8014C18.1077 11.9812 18.2087 12.2249 18.2087 12.4791C18.2087 12.7333 18.1077 12.977 17.928 13.1567C17.7482 13.3365 17.5045 13.4374 17.2503 13.4374C16.9962 13.4374 16.7524 13.3365 16.5727 13.1567C16.393 12.977 16.292 12.7333 16.292 12.4791C16.292 12.2249 16.393 11.9812 16.5727 11.8014C16.7524 11.6217 16.9962 11.5208 17.2503 11.5208Z" fill="#686868"/>
</svg>
